<?xml version="1.0" encoding="UTF-8" standalone="no"?>
<svg
   xmlns:dc="http://purl.org/dc/elements/1.1/"
   xmlns:cc="http://creativecommons.org/ns#"
   xmlns:rdf="http://www.w3.org/1999/02/22-rdf-syntax-ns#"
   xmlns:svg="http://www.w3.org/2000/svg"
   xmlns="http://www.w3.org/2000/svg"
   xmlns:xlink="http://www.w3.org/1999/xlink"
   xmlns:sodipodi="http://sodipodi.sourceforge.net/DTD/sodipodi-0.dtd"
   xmlns:inkscape="http://www.inkscape.org/namespaces/inkscape"
   width="210mm"
   height="223mm"
   viewBox="0 0 210 223"
   version="1.1"
   id="svg52"
   sodipodi:docname="avatar_singleOMG.svg"
   inkscape:version="0.92.2 (5c3e80d, 2017-08-06)">
  <metadata
     id="metadata56">
    <rdf:RDF>
      <cc:Work
         rdf:about="">
        <dc:format>image/svg+xml</dc:format>
        <dc:type
           rdf:resource="http://purl.org/dc/dcmitype/StillImage" />
        <dc:title></dc:title>
      </cc:Work>
    </rdf:RDF>
  </metadata>
  <sodipodi:namedview
     pagecolor="#ffffff"
     bordercolor="#666666"
     borderopacity="1"
     objecttolerance="10"
     gridtolerance="10"
     guidetolerance="10"
     inkscape:pageopacity="0"
     inkscape:pageshadow="2"
     inkscape:window-width="700"
     inkscape:window-height="480"
     id="namedview54"
     showgrid="false"
     inkscape:zoom="0.28000747"
     inkscape:cx="396.85039"
     inkscape:cy="421.41732"
     inkscape:window-x="370"
     inkscape:window-y="168"
     inkscape:window-maximized="0"
     inkscape:current-layer="svg52" />
  <defs
     id="defs22">
    <linearGradient
       xlink:href="#a"
       id="f"
       x1="648.93"
       y1="-607.44"
       x2="674.588"
       y2="-590.335"
       gradientUnits="userSpaceOnUse"
       gradientTransform="matrix(.62292 0 0 .6186 -287.874 613.813)" />
    <linearGradient
       id="a">
      <stop
         offset="0"
         stop-color="#292c49"
         id="stop3" />
      <stop
         offset="1"
         stop-color="#585e88"
         id="stop5" />
    </linearGradient>
    <linearGradient
       xlink:href="#b"
       id="e"
       x1="671.381"
       y1="-690.828"
       x2="717.351"
       y2="-685.483"
       gradientUnits="userSpaceOnUse"
       gradientTransform="matrix(.62292 0 0 .6186 -287.874 613.813)" />
    <linearGradient
       id="b">
      <stop
         offset="0"
         stop-color="#f5bc7c"
         id="stop9" />
      <stop
         offset="1"
         stop-color="#ffe4db"
         id="stop11" />
    </linearGradient>
    <linearGradient
       gradientTransform="matrix(.62292 0 0 .6186 -288.863 631.816)"
       xlink:href="#c"
       id="d"
       x1="527.055"
       y1="-830.877"
       x2="747.286"
       y2="-642.72"
       gradientUnits="userSpaceOnUse" />
    <linearGradient
       id="c">
      <stop
         class="background-circle-stop1"
         offset="0"
         stop-color="#66b8ff"
         id="stop15" />
      <stop
         class="background-circle-stop2"
         offset="1"
         stop-color="#008448"
         id="stop17" />
    </linearGradient>
  </defs>
  <g
     transform="translate(0 -74)"
     id="g50">
    <ellipse
       cx="105.314"
       cy="175.288"
       rx="105.134"
       ry="100.372"
       fill="url(#d)"
       id="ellipse24" />
    <g class="icon-heart-g">
      <g transform="translate(153,125)">
        <path
          class="icon-heart"
          d="M0 0c-12.516-9.656-40.133-22.259-27.385-36.187 5.894-6.44 15.066 2.455 15.828 2.008.885-.038 1.454-13.274 15.016-8.206 19.57 7.314 1.254 27.43-3.46 42.385z"
          fill="red"
          stroke="#000"
          stroke-width="3.894"
          id="path44" />
      </g>
      <g transform="translate(32,137)">
      <path
        class="icon-heart"
        d="M0 0c1.743-8.113 8.565-22.507-1.337-23.822-4.579-.608-5.234 6.07-5.694 6.148-.37.282-5.126-4.86-8.86 1.757-5.386 9.548 8.877 11.479 15.891 15.917z"
        fill="red"
        stroke="#000"
        stroke-width="2.053"
        id="path46" />
      </g>
      <g transform="translate(178,163)">
        <path
          class="icon-heart"
          d="M0 0c-4.033-10.029-15.975-27.008-3.56-30.858 5.739-1.78 8.059 6.646 8.666 6.644.537.283 5.5-7.355 11.756.32 9.027 11.074-8.846 16.667-16.862 23.894z"
          fill="red"
          stroke="#000"
          stroke-width="2.672"
          id="path48" />
      </g>
      <g transform="translate(46,261)">
        <path
          class="icon-heart"
          d="M0 0c-8.769-5.598-27.606-12.247-20.076-22.114 3.481-4.562 10.015.731 10.488.394.577-.076.17-8.78 9.353-6.25 13.253 3.653 2.44 17.898.235 27.97z"
          fill="red"
          stroke="#000"
          stroke-width="2.562"
          id="path38" />
      </g>
      <g transform="translate(138,269)">
        <path
          class="icon-heart"
          d="M0 0c-3.438-7.195-13.017-18.983-4.077-22.814 4.134-1.772 6.237 4.355 6.684 4.307.407.17 3.693-5.925 8.654-.662 7.158 7.594-5.712 13.148-11.261 19.169z"
          fill="red"
          stroke="#000"
          stroke-width="1.988"
          id="path40" />
      </g>
      <g transform="translate(170,225)" >
        <path
          class="icon-heart"
          d="M0 0c-5.877-14.616-23.28-39.36-5.189-44.972 8.365-2.595 11.746 9.686 12.631 9.683.782.411 8.016-10.72 17.133.465 13.156 16.14-12.891 24.291-24.575 34.824z"
          fill="red"
          stroke="#000"
          stroke-width="3.894"
          id="path26" />
      </g>
      <g transform="translate(74,135)" >
        <path
          class="icon-heart"
          d="M0 0c-5.877-14.616-23.28-39.36-5.189-44.972 8.365-2.595 11.746 9.686 12.631 9.683.783.411 8.016-10.72 17.133.465 13.157 16.14-12.89 24.291-24.575 34.824z"
          fill="red"
          stroke="#000"
          stroke-width="3.894"
          id="path26" />
      </g>
      <g transform="translate(26,203)" >
        <path
          class="icon-heart"
          d="M0 0c-7.844-13.675-28.506-35.81-11.363-43.837 7.927-3.712 12.975 7.991 13.852 7.868.831.3 6.456-11.713 17.034-1.878 15.265 14.192-9.407 25.82-19.523 37.847z"
          fill="red"
          stroke="#000"
          stroke-width="3.894"
          id="path26" />
      </g>
    </g>
    <g class="icon-heart-g-l" fill="transparent" stroke="transparent">
      <ellipse
       cx="105.314"
       cy="175.288"
       rx="105.134"
       ry="100.372"
       fill="transparent"
       stroke="transparent"       
       id="ellipsehithere" />
      <g transform="translate(153,125)scale(1.2)">
        <path
          class="icon-heart"
          d="M0 0c-12.516-9.656-40.133-22.259-27.385-36.187 5.894-6.44 15.066 2.455 15.828 2.008.885-.038 1.454-13.274 15.016-8.206 19.57 7.314 1.254 27.43-3.46 42.385z"
          stroke-width="3.894"
          id="path44" />
      </g>
      <g transform="translate(32,137)scale(1.2)">
      <path
        class="icon-heart"
        d="M0 0c1.743-8.113 8.565-22.507-1.337-23.822-4.579-.608-5.234 6.07-5.694 6.148-.37.282-5.126-4.86-8.86 1.757-5.386 9.548 8.877 11.479 15.891 15.917z"
        stroke-width="2.053"
        id="path46" />
      </g>
      <g transform="translate(178,163)scale(1.2)">
        <path
          class="icon-heart"
          d="M0 0c-4.033-10.029-15.975-27.008-3.56-30.858 5.739-1.78 8.059 6.646 8.666 6.644.537.283 5.5-7.355 11.756.32 9.027 11.074-8.846 16.667-16.862 23.894z"
          stroke-width="2.672"
          id="path48" />
      </g>
      <g transform="translate(46,261)scale(1.2)">
        <path
          class="icon-heart"
          d="M0 0c-8.769-5.598-27.606-12.247-20.076-22.114 3.481-4.562 10.015.731 10.488.394.577-.076.17-8.78 9.353-6.25 13.253 3.653 2.44 17.898.235 27.97z"
          stroke-width="2.562"
          id="path38" />
      </g>
      <g transform="translate(138,269)scale(1.2)">
        <path
          class="icon-heart"
          d="M0 0c-3.438-7.195-13.017-18.983-4.077-22.814 4.134-1.772 6.237 4.355 6.684 4.307.407.17 3.693-5.925 8.654-.662 7.158 7.594-5.712 13.148-11.261 19.169z"
          stroke-width="1.988"
          id="path40" />
      </g>
      <g transform="translate(170,225)scale(1.2)" >
        <path
          class="icon-heart"
          d="M0 0c-5.877-14.616-23.28-39.36-5.189-44.972 8.365-2.595 11.746 9.686 12.631 9.683.782.411 8.016-10.72 17.133.465 13.156 16.14-12.891 24.291-24.575 34.824z"
          stroke-width="3.894"
          id="path26" />
      </g>
      <g transform="translate(74,135)scale(1.2)" >
        <path
          class="icon-heart"
          d="M0 0c-5.877-14.616-23.28-39.36-5.189-44.972 8.365-2.595 11.746 9.686 12.631 9.683.783.411 8.016-10.72 17.133.465 13.157 16.14-12.89 24.291-24.575 34.824z"
          stroke-width="3.894"
          id="path26" />
      </g>
      <g transform="translate(26,203)scale(1.2)" >
        <path
          class="icon-heart"
          d="M0 0c-7.844-13.675-28.506-35.81-11.363-43.837 7.927-3.712 12.975 7.991 13.852 7.868.831.3 6.456-11.713 17.034-1.878 15.265 14.192-9.407 25.82-19.523 37.847z"
          stroke-width="3.894"
          id="path26" />
      </g>
    </g>
    <ellipse
       cx="105.303"
       cy="192.184"
       rx="59.071"
       ry="58.661"
       fill="url(#e)"
       stroke="#000"
       stroke-width="4.55"
       id="ellipse28" />
    <ellipse
       cx="104.28"
       cy="125.491"
       rx="16.379"
       ry="10.737"
       fill="#f3e200"
       stroke="#000"
       stroke-width="4.909"
       id="ellipse30" />
    <path
       d="M105.19 125.739c-28.06.226-49.667 15.175-55.898 34.235-6.41 19.605-3.192 34.025-2.368 32.971 1.859-2.375 2.621-5.341 4.693-8.015 7.254-9.361 14.799-19.043 15.516-18.467 10.885 8.741 64.482 9.982 76.524 1.522.568-.564 19.998 28.08 20.169 27.187 3.026-15.876.008-25.916-.995-28.417-16.869-42.116-57.642-41.016-57.642-41.016z"
       fill="#f3e200"
       stroke="#000"
       stroke-width="4.391"
       id="path32" />
    <path
       d="M69.494 197.907c5.556-9.173 16.34-10.215 21.406.416M138.043 198.418c-5.556-9.172-16.34-10.215-21.406.417"
       fill="none"
       stroke="#000"
       stroke-width="3.189"
       stroke-linecap="round"
       id="path34" />
    <path
       d="M111.624 166.856l3.856-39.565M91.382 168.133l-6.426-37.651M53.79 174.833l-6.748-7.338M149.217 167.814l7.712-9.573M131.224 164.623l6.426-26.802M70.819 163.347l-6.748-23.612"
       fill="none"
       stroke="#000"
       stroke-width="2.474"
       stroke-linecap="round"
       id="path36" />
    <path
       display="none"
       d="M44.742 195.496c17.993 14.04 106.148 12.434 119.044 3.67 2.325-1.58-.883 13.523-1.076 14.566-2.251 12.118-42.478 52.627-59.34 73.514-.923 1.143-2.71-7.575-2.92-6.51-1.288 6.53-1.357 8.73-1.985 14.125-.923 7.93-47.325-61.214-52.952-82.315-1.064-3.989-.77-17.05-.77-17.05z"
       fill="url(#f)"
       stroke="#000"
       stroke-width="2.713"
       id="path42" />
  </g>
</svg>
