<?xml version="1.0" encoding="UTF-8" standalone="no"?>
<!-- Created with Inkscape (http://www.inkscape.org/) -->

<svg
   xmlns:dc="http://purl.org/dc/elements/1.1/"
   xmlns:cc="http://creativecommons.org/ns#"
   xmlns:rdf="http://www.w3.org/1999/02/22-rdf-syntax-ns#"
   xmlns:svg="http://www.w3.org/2000/svg"
   xmlns="http://www.w3.org/2000/svg"
   xmlns:sodipodi="http://sodipodi.sourceforge.net/DTD/sodipodi-0.dtd"
   xmlns:inkscape="http://www.inkscape.org/namespaces/inkscape"
   version="1.1"
   id="svg2525"
   width="410"
   height="368"
   viewBox="0 0 410 368"
   sodipodi:docname="osh3.svg"
   inkscape:version="0.92.2 (5c3e80d, 2017-08-06)">
  <metadata
     id="metadata2531">
    <rdf:RDF>
      <cc:Work
         rdf:about="">
        <dc:format>image/svg+xml</dc:format>
        <dc:type
           rdf:resource="http://purl.org/dc/dcmitype/StillImage" />
        <dc:title></dc:title>
      </cc:Work>
    </rdf:RDF>
  </metadata>
  <defs
     id="defs2529" />
  <sodipodi:namedview
     pagecolor="#ffffff"
     bordercolor="#666666"
     borderopacity="1"
     objecttolerance="10"
     gridtolerance="10"
     guidetolerance="10"
     inkscape:pageopacity="0"
     inkscape:pageshadow="2"
     inkscape:window-width="1920"
     inkscape:window-height="1018"
     id="namedview2527"
     showgrid="false"
     inkscape:zoom="0.43866171"
     inkscape:cx="-484.88984"
     inkscape:cy="177.81356"
     inkscape:window-x="-8"
     inkscape:window-y="-8"
     inkscape:window-maximized="1"
     inkscape:current-layer="svg2525" />
  <path
     style="fill:#eaeaea;fill-opacity:1"
     d="m 65.459348,346.92557 c -13.50179,-13.51584 -18.633101,-19.27538 -18.041171,-20.25 0.45496,-0.74911 6.812661,-10.05645 14.128241,-20.68298 7.31557,-10.62654 13.30104,-20.18779 13.30104,-21.24723 0,-2.55002 -14.82687,-39.55337 -16.33026,-40.75537 -0.64336,-0.51438 -12.138781,-2.96693 -25.545391,-5.45012 -15.17099,-2.80999 -24.7000404,-5.02683 -25.2346904,-5.8706 -1.09693,-1.73115 -1.13352,-49.92304 -0.0392,-51.64796 0.48588,-0.76587 10.9685204,-3.15605 25.7346904,-5.86785 16.928261,-3.10886 25.426721,-5.09879 26.511631,-6.20775 0.87821,-0.89768 5.10047,-9.85797 9.3828,-19.91175 l 7.78605,-18.2796 -6.52994,-9.7204 c -3.59146,-5.34622 -10.47921,-15.48788 -15.3061,-22.53703 L 46.500877,85.6803 64.914038,67.24693 c 10.12724,-10.13835 19.09273,-18.41943 19.9233,-18.4024 0.83058,0.017 10.96014,6.52594 22.510142,14.46423 11.55,7.93829 21.97457,14.44935 23.16572,14.46903 2.19208,0.0362 36.11455,-13.34449 37.60224,-14.83219 0.4435,-0.4435 2.59117,-10.44214 4.77259,-22.2192 2.18142,-11.77706 4.44661,-23.77534 5.03374,-26.66284 l 1.06751,-5.25 h 26.8582 26.8582 l 1.07542,5.25 c 0.59147,2.8875 2.86083,14.88996 5.04302,26.67212 2.18218,11.78217 4.32629,21.78081 4.76468,22.2192 1.48117,1.48117 35.40916,14.85898 37.59296,14.82291 1.19115,-0.0197 11.61572,-6.53074 23.16572,-14.46903 11.55,-7.93829 21.67956,-14.44719 22.51014,-14.46423 0.83057,-0.017 9.80968,8.27769 19.95358,18.43271 l 18.44344,18.46367 -8.44885,12.28633 c -4.64686,6.75748 -11.55378,16.8726 -15.34871,22.47804 l -6.89987,10.19173 7.79838,18.30827 c 4.28911,10.06956 8.51692,19.04275 9.39513,19.94043 1.08491,1.10896 9.58337,3.09889 26.51163,6.20775 14.76617,2.7118 25.24881,5.10198 25.73469,5.86785 1.09354,1.72372 1.0581,49.91621 -0.038,51.64595 -0.53244,0.84026 -10.10367,3.07221 -25.23469,5.88458 -13.40729,2.49198 -24.90327,4.94544 -25.54663,5.45213 -1.52048,1.19751 -16.33024,38.20166 -16.33024,40.80333 0,1.09351 6.10312,10.80373 13.56248,21.57827 7.45937,10.77453 13.76415,20.1161 14.01063,20.75903 0.24648,0.64293 -8.04568,9.65362 -18.42702,20.02377 l -18.87517,18.85481 -20.54804,-14.10481 c -11.30142,-7.75765 -21.10942,-14.10481 -21.79555,-14.10481 -0.68614,0 -5.48897,2.2865 -10.67297,5.08112 -5.184,2.79462 -9.66114,4.84544 -9.94919,4.55738 -0.51765,-0.51764 -36.30517,-86.43127 -36.30517,-87.15632 0,-0.2064 2.5875,-2.06641 5.75,-4.13336 19.1081,-12.48868 29.25822,-31.52355 27.91441,-52.34882 -0.89662,-13.89497 -5.60704,-24.78171 -15.09941,-34.89782 -18.1997,-19.39559 -48.46056,-23.12975 -70.89283,-8.74811 -12.17577,7.80605 -22.31209,22.99481 -24.74377,37.07727 -4.05365,23.47565 5.80239,44.5753 27.57161,59.02488 3.02499,2.00788 5.49999,3.81956 5.49999,4.02596 0,0.72505 -35.78752,86.63868 -36.30517,87.15632 -0.28805,0.28806 -4.76519,-1.76276 -9.94919,-4.55738 -5.184,-2.79462 -9.98683,-5.08112 -10.67297,-5.08112 -0.68613,0 -10.42542,6.3 -21.64286,14 -11.217452,7.7 -20.520052,14 -20.672452,14 -0.15241,0 -8.76787,-8.4996 -19.14547,-18.88799 z"
     id="path6767"
     inkscape:connector-curvature="0"
     sodipodi:nodetypes="cccscsccscscsscscsccssccccsscscscsccscsccscscsscssscsssssscscsssscc" />
</svg>
